<svg width="788" height="159" viewBox="0 0 788 159" fill="none" xmlns="http://www.w3.org/2000/svg">
<path d="M48 159C18 159 0.8 128.4 0.8 86.8C0.8 44 21.2 8.59999 46 8.59999C56.4 8.59999 61.4 13 64.4 13C67 13 67.8 7.79999 72.2 7.79999C75.8 7.79999 78 11.6 79.2 17.4L84 40.4C85 45.4 86.2 49.6 86.2 52.2C86.2 56.4 83.2 58 80.8 58C78 58 76.4 56.2 74.8 53.2C66 36.2 59.8 24.6 50.8 24.6C37.4 24.6 31 50.4 31 84.6C31 121.4 38.2 142.4 53.8 142.4C66 142.4 73 130.6 75 114.8C75.4 110.8 77.2 107.2 81.2 107.2C85.2 107.2 87.4 110.4 87.4 115.4C87.4 142.6 71.4 159 48 159ZM178.489 126.2C178.489 138.6 189.289 137.6 189.289 143.6C189.289 148.4 185.289 150.2 172.289 153.6C162.689 156.2 160.089 156.6 158.489 156.6C154.489 156.6 153.289 153.4 153.289 149V139.4C148.089 150.8 140.889 157.4 129.289 157.4C112.889 157.4 103.889 143.4 103.889 121.2V85.6C103.889 73.2 93.6891 76.6 93.6891 69.6C93.6891 65.4 96.6891 63.6 109.889 58.2C118.889 54.6 121.889 53.4 123.889 53.4C127.689 53.4 129.089 56.2 129.089 62.2V114.4C129.089 124.4 130.889 136.8 140.089 136.8C148.289 136.8 153.289 127 153.289 111V85.6C153.289 73.2 141.689 76.8 141.689 69.6C141.689 65.4 145.689 63.2 159.289 58C168.089 54.6 171.689 53.4 173.289 53.4C177.689 53.4 178.489 56.6 178.489 62.2V126.2ZM202.075 155.6C198.075 155.6 196.475 153 196.475 150.6C196.475 143.6 204.475 147.8 204.475 132.4V35.6C204.475 23 195.475 28.2 195.475 20.6C195.475 16.8 198.875 14.8 210.475 8.59999C221.275 2.79999 222.675 2.4 224.475 2.4C227.675 2.4 229.475 4.59999 229.475 10.2V132.4C229.475 147.8 237.475 143.6 237.475 150.6C237.475 152.8 235.875 155.6 232.075 155.6C228.675 155.6 225.075 155 216.875 155C208.875 155 205.475 155.6 202.075 155.6ZM303.27 133.2C305.67 133.2 307.47 135.2 307.47 138C307.47 140.8 306.47 143.4 304.07 146.6C298.47 154 289.27 157.4 279.47 157.4C267.27 157.4 255.47 150.4 255.47 137.8C255.47 131 255.87 121.2 255.87 103.6V68.4H250.07C246.27 68.4 243.87 66 243.87 62.8C243.87 60 245.47 58.2 248.87 55.8C258.07 49.8 264.87 42 269.87 24.8C271.47 19.8 273.27 17.8 276.47 17.8C279.67 17.8 281.07 20 281.07 24.8V55H300.67C303.27 55 304.87 56.4 304.87 58.6C304.87 60.8 304.67 62.8 304.47 64C303.87 67.4 302.27 68.4 299.87 68.4H281.07V125.2C281.07 135.8 283.67 141.2 289.27 141.2C292.67 141.2 295.47 138.8 297.87 136.2C299.27 134.8 300.87 133.2 303.27 133.2ZM395.481 126.2C395.481 138.6 406.281 137.6 406.281 143.6C406.281 148.4 402.281 150.2 389.281 153.6C379.681 156.2 377.081 156.6 375.481 156.6C371.481 156.6 370.281 153.4 370.281 149V139.4C365.081 150.8 357.881 157.4 346.281 157.4C329.881 157.4 320.881 143.4 320.881 121.2V85.6C320.881 73.2 310.681 76.6 310.681 69.6C310.681 65.4 313.681 63.6 326.881 58.2C335.881 54.6 338.881 53.4 340.881 53.4C344.681 53.4 346.081 56.2 346.081 62.2V114.4C346.081 124.4 347.881 136.8 357.081 136.8C365.281 136.8 370.281 127 370.281 111V85.6C370.281 73.2 358.681 76.8 358.681 69.6C358.681 65.4 362.681 63.2 376.281 58C385.081 54.6 388.681 53.4 390.281 53.4C394.681 53.4 395.481 56.6 395.481 62.2V126.2ZM473.267 52.6C480.067 52.6 486.667 56.6 486.667 63C486.667 67.6 484.267 74.4 480.867 83.8C479.467 87.6 478.067 89.6 475.067 89.6C472.267 89.6 470.667 87.4 469.067 83.8C466.267 77.6 463.867 76 461.267 76C454.667 76 447.467 87.6 447.467 113.2V132.4C447.467 147.8 456.667 143.4 456.667 150.6C456.667 153 454.867 155.6 451.267 155.6C447.467 155.6 443.667 155 434.867 155C426.867 155 423.667 155.6 420.267 155.6C416.467 155.6 414.867 153 414.867 150.6C414.867 144 422.267 147.8 422.267 132.4V86.6C422.267 74.2 413.867 79.2 413.867 71.6C413.867 67.8 417.667 65.6 428.867 59.6C439.267 54 440.467 53.4 442.667 53.4C447.067 53.4 447.467 58.6 447.467 62V78.6C451.667 63.6 461.267 52.6 473.267 52.6ZM509.383 36.6C502.183 36.6 496.983 32 496.983 25C496.983 15.4 505.983 5.99999 515.983 5.99999C522.983 5.99999 528.583 10.8 528.583 18.2C528.583 27.6 519.583 36.6 509.383 36.6ZM498.983 155.6C494.983 155.6 493.583 153 493.583 150.6C493.583 143.6 501.383 147.8 501.383 132.4V86.6C501.383 74 492.383 79.2 492.383 71.6C492.383 67.6 496.383 65.6 507.583 59.6C518.383 54 519.783 53.4 521.583 53.4C525.583 53.4 526.583 57 526.583 61.2V132.4C526.583 147.8 534.583 143.6 534.583 150.6C534.583 152.8 532.983 155.6 528.983 155.6C525.583 155.6 521.983 155 513.983 155C505.983 155 502.383 155.6 498.983 155.6ZM628.941 130.2C630.541 148.4 638.141 143.6 638.141 150.8C638.141 153.6 635.941 155.4 632.341 155.4C628.741 155.4 625.741 154.8 617.541 154.8C609.141 154.8 605.941 155.4 602.341 155.4C598.341 155.4 596.541 153.2 596.541 150.4C596.541 144.4 603.941 146.8 603.941 135.4C603.941 133.6 603.541 130.4 603.341 127.6L600.541 97.2C599.341 83.2 597.741 74 590.141 74C582.741 74 578.341 81.4 578.341 98.4V132.4C578.341 147.8 586.341 144 586.341 150.6C586.341 152.8 584.741 155.6 580.741 155.6C577.341 155.6 573.741 155 565.741 155C557.741 155 554.141 155.6 550.741 155.6C546.741 155.6 545.341 153 545.341 150.6C545.341 144 553.141 147.8 553.141 132.4V86.6C553.141 74.2 544.141 79.2 544.141 71.6C544.141 68 547.741 65.8 559.541 59.6C570.341 53.8 571.541 53.4 573.341 53.4C577.541 53.4 578.341 57.4 578.341 62V70.6C582.941 59.6 591.141 52.8 601.941 52.8C621.141 52.8 624.341 75.2 625.341 87.2L628.941 130.2ZM659.976 89.36C657.696 89.36 656.616 87.8 656.616 86.36C656.616 81.2 662.376 84.08 662.376 75.8V16.88C662.376 13.76 661.896 11.6 659.256 11.6H658.416C654.936 11.6 652.296 15.68 646.416 25.4C645.336 27.2 644.376 28.4 642.456 28.4C641.016 28.4 639.336 27.32 639.336 25.04C639.336 23.24 639.936 21.08 641.256 16.76L644.136 6.79999C645.336 2.59999 646.056 0.799993 648.336 0.799993C650.976 0.799993 651.576 3.55999 655.176 3.55999H685.896C689.616 3.55999 690.096 0.799993 692.736 0.799993C695.016 0.799993 695.856 2.35999 697.056 6.79999L699.936 16.76C701.256 21.32 701.856 23.24 701.856 25.04C701.856 27.32 700.176 28.4 698.736 28.4C697.056 28.4 696.096 27.44 694.896 25.52C689.376 16.4 686.616 11.6 682.896 11.6H681.936C679.536 11.6 678.816 13.28 678.816 16.88V75.8C678.816 84.08 684.576 81.2 684.576 86.36C684.576 87.92 683.376 89.36 681.096 89.36C678.816 89.36 676.416 89 670.536 89C664.776 89 662.256 89.36 659.976 89.36ZM781.673 76.88C782.393 83.24 787.793 82.04 787.793 86.48C787.793 88.16 786.713 89.36 784.433 89.36C782.273 89.36 779.153 89 774.713 89C770.273 89 766.553 89.36 763.793 89.36C761.393 89.36 759.833 88.4 759.833 86.48C759.833 82.28 765.353 83.36 765.353 78.68C765.353 77.36 765.233 75.8 765.113 74.36L761.633 34.64L747.953 79.16C746.993 82.16 745.553 83.36 743.033 83.36C740.753 83.36 739.553 82.4 738.353 79.04L723.353 33.68L719.273 73.64C719.033 75.8 718.913 77.12 718.913 78.32C718.913 83.12 724.433 82.04 724.433 86.24C724.433 88.28 722.873 89.36 720.593 89.36C717.953 89.36 715.433 89 713.153 89C710.873 89 708.593 89.36 706.673 89.36C704.273 89.36 703.193 88.28 703.193 86.24C703.193 82.16 708.953 83.24 709.673 76.52L715.913 20.48C716.153 17.96 716.153 16.04 716.153 15.32C716.153 9.55999 711.113 10.28 711.113 6.19999C711.113 4.51999 712.193 3.19999 714.713 3.19999C716.753 3.19999 719.513 3.55999 724.313 3.55999C728.633 3.55999 731.393 3.19999 733.913 3.19999C736.073 3.19999 737.393 4.63999 737.393 6.19999C737.393 10.52 733.073 9.43999 733.073 14.48C733.073 15.8 733.553 17.96 734.033 19.76L746.393 58.16L757.913 19.88C758.393 18.2 758.873 16.04 758.873 14.6C758.873 9.31999 754.673 10.64 754.673 6.19999C754.673 4.51999 755.993 3.19999 758.393 3.19999C761.033 3.19999 762.473 3.55999 767.033 3.55999C771.233 3.55999 773.753 3.19999 775.913 3.19999C778.073 3.19999 779.153 4.51999 779.153 6.07999C779.153 10.04 775.193 9.07999 775.193 14.6C775.193 15.92 775.433 18.44 775.913 22.64L781.673 76.88Z" fill="#FAC100"/>
</svg>
